<svg width="21" height="21" viewBox="0 0 21 21" fill="none" xmlns="http://www.w3.org/2000/svg">
<circle cx="10.5" cy="10.5" r="10.5" fill="white"/>
<path d="M9.54102 12.5684C9.50195 12.4668 9.4707 12.3535 9.44727 12.2285C9.42773 12.0996 9.41797 11.9785 9.41797 11.8652C9.41797 11.6855 9.43555 11.5215 9.4707 11.373C9.50586 11.2246 9.55859 11.0859 9.62891 10.957C9.69922 10.8242 9.78711 10.6992 9.89258 10.582C9.99805 10.4609 10.1211 10.3418 10.2617 10.2246C10.4102 10.0996 10.5391 9.98438 10.6484 9.87891C10.7617 9.76953 10.8574 9.66211 10.9355 9.55664C11.0137 9.44727 11.0723 9.33594 11.1113 9.22266C11.1504 9.10547 11.1699 8.97656 11.1699 8.83594C11.1699 8.71484 11.1484 8.60352 11.1055 8.50195C11.0625 8.39648 11 8.30664 10.918 8.23242C10.8398 8.1582 10.7422 8.09961 10.625 8.05664C10.5117 8.01367 10.3848 7.99219 10.2441 7.99219C9.93945 7.99219 9.62305 8.05664 9.29492 8.18555C8.9668 8.31055 8.65625 8.50195 8.36328 8.75977V6.99609C8.66406 6.81641 8.99219 6.68164 9.34766 6.5918C9.70312 6.50195 10.0703 6.45703 10.4492 6.45703C10.8125 6.45703 11.1504 6.49805 11.4629 6.58008C11.7754 6.6582 12.0469 6.7832 12.2773 6.95508C12.5117 7.12695 12.6934 7.34766 12.8223 7.61719C12.9551 7.88281 13.0215 8.20312 13.0215 8.57812C13.0215 8.81641 12.9941 9.0332 12.9395 9.22852C12.8848 9.41992 12.8047 9.60156 12.6992 9.77344C12.5938 9.94531 12.4629 10.1113 12.3066 10.2715C12.1504 10.4277 11.9707 10.5898 11.7676 10.7578C11.6309 10.8711 11.5098 10.9766 11.4043 11.0742C11.3027 11.1719 11.2168 11.2695 11.1465 11.3672C11.0801 11.4609 11.0293 11.5625 10.9941 11.6719C10.959 11.7773 10.9414 11.8984 10.9414 12.0352C10.9414 12.1289 10.9531 12.2246 10.9766 12.3223C11.0039 12.4199 11.0391 12.502 11.082 12.5684H9.54102ZM10.3965 15.1348C10.084 15.1348 9.82422 15.041 9.61719 14.8535C9.41016 14.6582 9.30664 14.4277 9.30664 14.1621C9.30664 13.8887 9.41016 13.6602 9.61719 13.4766C9.82422 13.293 10.084 13.2012 10.3965 13.2012C10.7051 13.2012 10.9609 13.293 11.1641 13.4766C11.3672 13.6562 11.4688 13.8848 11.4688 14.1621C11.4688 14.4434 11.3691 14.6758 11.1699 14.8594C10.9668 15.043 10.709 15.1348 10.3965 15.1348Z" fill="#FDA726"/>
</svg>
